<?xml version="1.0" encoding="UTF-8"?><svg id="Layer_1" xmlns="http://www.w3.org/2000/svg" xmlns:xlink="http://www.w3.org/1999/xlink" viewBox="0 0 1720 12"><defs><style>.cls-1{fill:url(#linear-gradient);fill-rule:evenodd;}</style><linearGradient id="linear-gradient" x1="0" y1="6" x2="1720" y2="6" gradientTransform="matrix(1, 0, 0, 1, 0, 0)" gradientUnits="userSpaceOnUse"><stop offset=".12" stop-color="#bd986a"/><stop offset=".25" stop-color="#debf89"/><stop offset=".38" stop-color="#bd986a"/><stop offset=".5" stop-color="#debf89"/><stop offset=".62" stop-color="#bd986a"/><stop offset=".75" stop-color="#debf89"/><stop offset=".88" stop-color="#bd986a"/><stop offset="1" stop-color="#d0b07e"/></linearGradient></defs><path class="cls-1" d="M1310.81,5c-.41-1.16-1.51-2-2.82-2s-2.41,.84-2.82,2h-8.28c-9.95-1.86-12.91-5-12.91-5,0,0-2.99,3.1-13.11,5h-6.08c-.41-1.16-1.5-2-2.81-2s-2.41,.84-2.82,2h-341.37c-.41-1.16-1.51-2-2.81-2s-2.39,.84-2.81,2h-4.71c-21.47-1.25-27.01-2.36-31.9-5-2.99,1.59-6.68,3.75-8.78,5h-1.85l-5.37-4.58-5.37,4.58h-2c-2.1-1.24-5.79-3.41-8.78-5-4.89,2.64-10.43,3.75-31.9,5h-4.7c-.41-1.16-1.5-2-2.81-2s-2.4,.84-2.81,2H480.81c-.41-1.16-1.51-2-2.82-2s-2.41,.84-2.82,2h-8.28C456.96,3.15,453.99,0,453.99,0c0,0-2.99,3.1-13.11,5h-6.08c-.41-1.16-1.5-2-2.81-2s-2.41,.84-2.82,2H0v2H429.18c.41,1.16,1.51,2,2.81,2s2.39-.84,2.8-2h6.49c9.81,1.85,12.7,5,12.7,5,0,0,3.2-3.15,12.92-5h8.27c.41,1.16,1.51,2,2.81,2s2.4-.84,2.81-2h320.38c.41,1.16,1.5,2,2.81,2s2.4-.84,2.81-2h5.81c20.61,1.25,26.61,2.7,30.79,5,4.25-2.21,7.22-3.97,8.89-5h1.41l5.86,5,5.86-5h1.26c1.66,1.03,4.64,2.8,8.89,5,4.17-2.3,10.18-3.75,30.79-5h5.81c.41,1.16,1.51,2,2.81,2s2.4-.84,2.81-2h341.37c.41,1.16,1.51,2,2.81,2s2.39-.84,2.8-2h6.49c9.81,1.85,12.7,5,12.7,5,0,0,3.2-3.15,12.92-5h8.27c.41,1.16,1.51,2,2.81,2s2.4-.84,2.81-2h409.19v-2h-409.19Z"/></svg>