<svg width="27" height="27" viewBox="0 0 27 27" fill="none" xmlns="http://www.w3.org/2000/svg">
<rect x="4.71436" y="7.0957" width="6" height="18" rx="2" fill="white" stroke="black" stroke-width="2"/>
<ellipse cx="24.5" cy="11.5" rx="2.5" ry="4.5" fill="black"/>
<path d="M1.61914 8.80953C1.61914 7.70496 2.51247 6.80952 3.61704 6.80952C5.09469 6.80952 7.55735 6.80952 11.5239 6.80952C17.1332 6.80952 20.7529 3.50131 22.4314 1.49659C22.7594 1.10484 23.5239 1.34654 23.5239 1.85748V21.6663C23.5239 22.1773 22.7594 22.419 22.4314 22.0272C20.7529 20.0225 17.1332 16.7143 11.5239 16.7143C7.55735 16.7143 5.09468 16.7143 3.61704 16.7143C2.51247 16.7143 1.61914 15.8189 1.61914 14.7143V8.80953Z" fill="white" stroke="black" stroke-width="2" stroke-linejoin="round"/>
<path d="M10.7144 7.0957V23.0957C10.7144 24.2003 9.81892 25.0957 8.71436 25.0957H6.71436C5.60979 25.0957 4.71436 24.2003 4.71436 23.0957V16.6957" stroke="black" stroke-width="2"/>
</svg>
