<svg width="26" height="24" viewBox="0 0 26 24" fill="none" xmlns="http://www.w3.org/2000/svg">
<path d="M12.1033 1.81699C12.4701 1.07374 13.5299 1.07374 13.8967 1.81699L16.5879 7.26995C16.7336 7.56509 17.0152 7.76966 17.3409 7.81699L23.3586 8.69141C24.1788 8.8106 24.5063 9.81857 23.9128 10.3971L19.5583 14.6416C19.3227 14.8714 19.2151 15.2024 19.2707 15.5268L20.2987 21.5202C20.4388 22.3371 19.5814 22.96 18.8477 22.5743L13.4653 19.7446C13.174 19.5915 12.826 19.5915 12.5347 19.7446L7.15226 22.5743C6.41864 22.96 5.5612 22.3371 5.70131 21.5202L6.72926 15.5268C6.7849 15.2024 6.67735 14.8714 6.44166 14.6416L2.08721 10.3971C1.4937 9.81857 1.82121 8.8106 2.64143 8.69141L8.65913 7.81699C8.98484 7.76966 9.2664 7.56509 9.41207 7.26995L12.1033 1.81699Z" fill="white" stroke="black" stroke-width="2"/>
</svg>
